<svg width="24" height="24" viewBox="0 0 24 24" fill="none" xmlns="http://www.w3.org/2000/svg">
<path d="M3.55274 20.9892H20.4472C22.498 20.9892 23.5136 19.9834 23.5136 17.9716V6.03808C23.5136 4.02636 22.498 3.01074 20.4472 3.01074H3.55274C1.51172 3.01074 0.486328 4.02636 0.486328 6.03808V17.9716C0.486328 19.9834 1.51172 20.9892 3.55274 20.9892ZM3.57227 19.4169C2.59571 19.4169 2.0586 18.8994 2.0586 17.8837V6.12597C2.0586 5.11035 2.59571 4.58301 3.57227 4.58301H20.4277C21.3945 4.58301 21.9414 5.11035 21.9414 6.12597V17.8837C21.9414 18.8994 21.3945 19.4169 20.4277 19.4169H3.57227Z" fill="#9CA3AF"/>
<path d="M14.3047 8.78222H19.6367C19.9785 8.78222 20.2422 8.51855 20.2422 8.17676C20.2422 7.84472 19.9785 7.58105 19.6367 7.58105H14.3047C13.9531 7.58105 13.6894 7.84472 13.6894 8.17676C13.6894 8.51855 13.9531 8.78222 14.3047 8.78222ZM14.3047 12.6104H19.6367C19.9785 12.6104 20.2422 12.3369 20.2422 11.9951C20.2422 11.6631 19.9785 11.4092 19.6367 11.4092H14.3047C13.9531 11.4092 13.6894 11.6631 13.6894 11.9951C13.6894 12.3369 13.9531 12.6104 14.3047 12.6104ZM14.3047 16.4287H19.6367C19.9785 16.4287 20.2422 16.1748 20.2422 15.8427C20.2422 15.5009 19.9785 15.2275 19.6367 15.2275H14.3047C13.9531 15.2275 13.6894 15.5009 13.6894 15.8427C13.6894 16.1748 13.9531 16.4287 14.3047 16.4287ZM4.12891 16.4287H11.7558C12.0781 16.4287 12.2343 16.2138 12.2343 15.9209C12.2343 15.0029 10.8574 12.6397 7.9375 12.6397C5.01758 12.6397 3.65039 15.0029 3.65039 15.9209C3.65039 16.2138 3.80664 16.4287 4.12891 16.4287ZM7.9375 11.9561C9.12891 11.9658 10.0762 10.96 10.0762 9.62207C10.0762 8.37207 9.12891 7.33691 7.9375 7.33691C6.75586 7.33691 5.79883 8.37207 5.79883 9.62207C5.79883 10.96 6.75586 11.9561 7.9375 11.9561Z" fill="#9CA3AF"/>
</svg>
