<svg width="146" height="32" viewBox="0 0 146 32" fill="none" xmlns="http://www.w3.org/2000/svg">
<path d="M26.14 20.5353C26.4556 19.8757 26.1738 19.0867 25.5076 18.7724C24.8426 18.4594 24.0472 18.7389 23.7304 19.3986C22.4098 22.1549 19.5705 23.9351 16.4982 23.9351C13.426 23.9351 10.5879 22.1538 9.26722 19.3986C8.95161 18.7389 8.15619 18.4582 7.49003 18.7724C6.82504 19.0867 6.54204 19.8745 6.85881 20.5353C8.61969 24.2078 12.4023 26.5818 16.4982 26.5818C20.5953 26.5806 24.3803 24.2078 26.14 20.5353Z" fill="url(#paint0_linear_9043_175338)"/>
<path d="M23.7296 12.5982C23.9579 13.0753 24.4366 13.3537 24.935 13.3537C25.1272 13.3537 25.3216 13.3121 25.5068 13.2255C26.1718 12.9124 26.4548 12.1234 26.1392 11.4637C24.3807 7.79129 20.5969 5.41846 16.4998 5.41846C12.4039 5.41846 8.62122 7.79129 6.86151 11.4637C6.5459 12.1234 6.8289 12.9124 7.49388 13.2255C8.15887 13.5385 8.9543 13.2578 9.26991 12.5982C10.5894 9.84296 13.4275 8.06276 16.4998 8.06276C19.5708 8.06276 22.4101 9.84296 23.7296 12.5982Z" fill="url(#paint1_linear_9043_175338)"/>
<path d="M20.8622 0.726632C20.153 0.526778 19.4169 0.936884 19.2166 1.63926C19.0163 2.34164 19.4286 3.07289 20.1367 3.27159C25.8455 4.87273 29.8332 10.107 29.8332 15.9987C29.8332 21.8915 25.8455 27.127 20.1367 28.7281C19.4286 28.9268 19.0163 29.6581 19.2166 30.3604C19.3832 30.9427 19.9177 31.3239 20.4989 31.3239C20.6188 31.3239 20.7411 31.3077 20.8622 31.2731C27.7147 29.3508 32.5001 23.0698 32.5001 15.9987C32.5001 8.92872 27.7147 2.64777 20.8622 0.726632Z" fill="url(#paint2_linear_9043_175338)"/>
<path d="M12.8623 28.7274C7.15339 27.1263 3.16695 21.892 3.16695 16.0003C3.16695 10.1087 7.15339 4.87554 12.8623 3.2744C13.5704 3.0757 13.9826 2.34444 13.7823 1.64207C13.582 0.93969 12.8448 0.529586 12.1367 0.72944C5.28536 2.65173 0.5 8.93153 0.5 16.0003C0.5 23.0703 5.28536 29.3513 12.1367 31.2736C12.2578 31.3082 12.3801 31.3244 12.5001 31.3244C13.0812 31.3244 13.6158 30.9443 13.7823 30.3609C13.9826 29.6562 13.5704 28.9261 12.8623 28.7274Z" fill="url(#paint3_linear_9043_175338)"/>
<path d="M16.4989 13.3544C17.2105 13.3544 17.8801 13.6294 18.3833 14.1284C18.9038 14.6448 19.7482 14.6448 20.2687 14.1284C20.7893 13.6121 20.7893 12.7745 20.2687 12.2581C19.2614 11.2589 17.9232 10.709 16.4989 10.709C13.5583 10.709 11.165 13.0818 11.165 15.9999V19.4991C11.165 20.2292 11.7625 20.8218 12.4985 20.8218C13.2345 20.8218 13.832 20.2292 13.832 19.4991V15.9491C13.8611 14.5131 15.0467 13.3544 16.4989 13.3544Z" fill="url(#paint4_linear_9043_175338)"/>
<path d="M44.4266 25.3593H40.7954V6.3136H49.4592C50.3393 6.3136 51.1282 6.44929 51.8243 6.72219C52.5205 6.99509 53.1118 7.39012 53.5982 7.90878C54.0845 8.42744 54.46 9.05013 54.726 9.77836C54.992 10.5066 55.1242 11.3162 55.1242 12.2073C55.1242 13.5175 54.8263 14.6453 54.2304 15.5907C53.6346 16.536 52.7409 17.21 51.5492 17.6095L55.4829 25.3577H51.4398L47.8633 18.0181H44.4251V25.3593H44.4266ZM49.1021 14.9906C49.7982 14.9906 50.3484 14.8036 50.7527 14.4312C51.1555 14.0588 51.3577 13.5266 51.3577 12.8345V11.5801C51.3577 10.8896 51.1555 10.3619 50.7527 9.99698C50.35 9.63362 49.7997 9.45119 49.1021 9.45119H44.4266V14.9906H49.1021Z" fill="white"/>
<path d="M64.2308 25.6865C63.1668 25.6865 62.2183 25.5086 61.3839 25.1543C60.5494 24.8 59.8441 24.2994 59.2666 23.6541C58.689 23.0088 58.2436 22.2263 57.932 21.3081C57.6204 20.3899 57.4639 19.3571 57.4639 18.2112C57.4639 17.0834 57.6143 16.0657 57.9183 15.155C58.2208 14.2459 58.6555 13.4679 59.2255 12.8226C59.794 12.1773 60.4901 11.6767 61.3155 11.3224C62.1408 10.9681 63.0756 10.7902 64.1214 10.7902C65.2401 10.7902 66.2113 10.9816 67.0367 11.3631C67.862 11.7446 68.5399 12.2632 69.0719 12.9176C69.6039 13.5719 70.0021 14.3318 70.2681 15.1957C70.5341 16.0597 70.6664 16.9824 70.6664 17.9654V19.1113H61.1225V19.4641C61.1225 20.4939 61.4158 21.3201 62.0025 21.9428C62.5892 22.5655 63.4602 22.8776 64.6153 22.8776C65.4954 22.8776 66.2144 22.6967 66.7752 22.3364C67.3346 21.9745 67.8346 21.5146 68.2739 20.9553L70.1724 23.0616C69.5857 23.8833 68.7831 24.5256 67.7663 24.99C66.7479 25.4528 65.5684 25.6865 64.2308 25.6865ZM64.1761 13.4076C63.2413 13.4076 62.498 13.7167 61.9478 14.3348C61.3976 14.953 61.1225 15.7536 61.1225 16.7366V16.9553H67.0093V16.7095C67.0093 15.728 66.7661 14.9319 66.2797 14.3228C65.7933 13.7136 65.0926 13.4076 64.1761 13.4076Z" fill="white"/>
<path d="M73.9961 25.3593V6.3136H86.3459V9.50547H77.6258V14.1161H85.218V17.308H77.6258V25.3562H73.9961V25.3593Z" fill="white"/>
<path d="M94.5149 25.6867C93.4874 25.6867 92.5663 25.5133 91.7501 25.168C90.9339 24.8227 90.2377 24.3222 89.6601 23.6678C89.0825 23.0135 88.6372 22.2264 88.3256 21.3082C88.014 20.39 87.8574 19.3572 87.8574 18.2113C87.8574 17.0655 88.0125 16.0387 88.3256 15.128C88.6372 14.2189 89.0825 13.4409 89.6601 12.7956C90.2377 12.1503 90.9339 11.6542 91.7501 11.3089C92.5663 10.9637 93.4874 10.7903 94.5149 10.7903C95.5409 10.7903 96.4681 10.9637 97.2934 11.3089C98.1188 11.6542 98.8195 12.1503 99.3971 12.7956C99.9747 13.4409 100.418 14.2189 100.732 15.128C101.043 16.0372 101.2 17.0655 101.2 18.2113C101.2 19.3572 101.043 20.39 100.732 21.3082C100.42 22.2264 99.9747 23.0135 99.3971 23.6678C98.8195 24.3222 98.1188 24.8227 97.2934 25.168C96.4681 25.5133 95.5409 25.6867 94.5149 25.6867ZM94.5149 22.8762C95.4497 22.8762 96.1838 22.5943 96.7158 22.0304C97.2478 21.4665 97.5138 20.6388 97.5138 19.5472V16.9011C97.5138 15.8276 97.2478 15.0089 96.7158 14.445C96.1838 13.8811 95.4512 13.5992 94.5149 13.5992C93.5984 13.5992 92.8733 13.8811 92.3413 14.445C91.8094 15.0089 91.5434 15.8276 91.5434 16.9011V19.5472C91.5434 20.6388 91.8094 21.4665 92.3413 22.0304C92.8733 22.5943 93.5968 22.8762 94.5149 22.8762Z" fill="white"/>
<path d="M109.973 25.6867C108.909 25.6867 107.965 25.5133 107.14 25.168C106.315 24.8227 105.623 24.3222 105.064 23.6678C104.504 23.0135 104.077 22.2264 103.786 21.3082C103.492 20.39 103.345 19.3572 103.345 18.2113C103.345 17.0655 103.491 16.0387 103.786 15.128C104.079 14.2189 104.504 13.4409 105.064 12.7956C105.623 12.1503 106.315 11.6542 107.14 11.3089C107.965 10.9637 108.909 10.7903 109.973 10.7903C111.422 10.7903 112.618 11.1084 113.564 11.7447C114.507 12.3809 115.19 13.263 115.612 14.3907L112.724 15.6738C112.559 15.0737 112.252 14.5777 111.803 14.1872C111.353 13.7967 110.744 13.6007 109.975 13.6007C108.985 13.6007 108.247 13.9098 107.76 14.5279C107.274 15.1461 107.031 15.9558 107.031 16.9569V19.5487C107.031 20.5498 107.274 21.3534 107.76 21.9626C108.245 22.5717 108.984 22.8762 109.975 22.8762C110.818 22.8762 111.469 22.6622 111.928 22.2355C112.386 21.8088 112.744 21.2765 113.001 20.6388L115.696 21.9219C115.219 23.1763 114.495 24.1186 113.522 24.7458C112.55 25.373 111.366 25.6867 109.973 25.6867Z" fill="white"/>
<path d="M126.998 22.9845H126.862C126.732 23.3478 126.564 23.6901 126.352 24.0082C126.141 24.3263 125.875 24.6128 125.554 24.8676C125.234 25.1224 124.848 25.3229 124.399 25.4677C123.949 25.6124 123.433 25.6863 122.846 25.6863C121.361 25.6863 120.224 25.2038 119.435 24.2404C118.646 23.277 118.252 21.9034 118.252 20.1198V11.1156H121.773V19.7654C121.773 20.747 121.966 21.4978 122.35 22.0165C122.735 22.5351 123.349 22.7945 124.192 22.7945C124.541 22.7945 124.884 22.7492 125.225 22.6588C125.564 22.5683 125.861 22.4266 126.118 22.2366C126.375 22.0451 126.586 21.8099 126.751 21.5265C126.916 21.2445 126.998 20.9128 126.998 20.5314V11.1186H130.519V25.3606H126.998V22.9845Z" fill="white"/>
<path d="M139.294 25.6865C137.918 25.6865 136.763 25.4543 135.828 24.9914C134.893 24.5271 134.068 23.8863 133.352 23.0676L135.497 20.9944C136.029 21.5945 136.611 22.0679 137.243 22.4132C137.875 22.7585 138.605 22.9319 139.43 22.9319C140.274 22.9319 140.884 22.7871 141.259 22.4946C141.634 22.2036 141.823 21.8041 141.823 21.2945C141.823 20.8768 141.689 20.5436 141.425 20.2979C141.159 20.0521 140.704 19.8848 140.063 19.7928L138.632 19.6013C137.073 19.4008 135.886 18.9605 135.071 18.2775C134.255 17.596 133.848 16.5994 133.848 15.2892C133.848 14.5986 133.975 13.976 134.232 13.4196C134.489 12.8648 134.855 12.3928 135.333 12.0008C135.81 11.6103 136.381 11.3103 137.052 11.1007C137.72 10.8911 138.468 10.7871 139.294 10.7871C139.99 10.7871 140.608 10.8369 141.15 10.9379C141.691 11.0374 142.182 11.1836 142.621 11.3751C143.06 11.5666 143.464 11.8033 143.831 12.0853C144.197 12.3672 144.554 12.6808 144.904 13.0261L142.841 15.0721C142.419 14.6348 141.916 14.2715 141.329 13.9805C140.742 13.6895 140.101 13.5432 139.403 13.5432C138.632 13.5432 138.078 13.6789 137.739 13.9518C137.4 14.2247 137.23 14.579 137.23 15.0163C137.23 15.4897 137.371 15.8486 137.655 16.0943C137.939 16.3401 138.421 16.5165 139.099 16.6265L140.557 16.818C143.656 17.2553 145.205 18.656 145.205 21.0201C145.205 21.7121 145.062 22.3439 144.779 22.9168C144.495 23.4897 144.095 23.9813 143.583 24.3899C143.069 24.7984 142.451 25.1181 141.726 25.3442C141.004 25.5719 140.192 25.6865 139.294 25.6865Z" fill="white"/>
<defs>
<linearGradient id="paint0_linear_9043_175338" x1="6.7301" y1="22.6124" x2="26.2695" y2="22.6124" gradientUnits="userSpaceOnUse">
<stop stop-color="#FFA200"/>
<stop offset="1" stop-color="#FF7D00"/>
</linearGradient>
<linearGradient id="paint1_linear_9043_175338" x1="6.73086" y1="9.38573" x2="26.2672" y2="9.38573" gradientUnits="userSpaceOnUse">
<stop stop-color="#FF7D00"/>
<stop offset="1" stop-color="#FFA200"/>
</linearGradient>
<linearGradient id="paint2_linear_9043_175338" x1="25.833" y1="31.3238" x2="25.833" y2="0.675872" gradientUnits="userSpaceOnUse">
<stop stop-color="#FFA200"/>
<stop offset="1" stop-color="#FF7D00"/>
</linearGradient>
<linearGradient id="paint3_linear_9043_175338" x1="7.16641" y1="31.3226" x2="7.16641" y2="0.677975" gradientUnits="userSpaceOnUse">
<stop stop-color="#FF7D00"/>
<stop offset="1" stop-color="#FFA200"/>
</linearGradient>
<linearGradient id="paint4_linear_9043_175338" x1="10.3796" y1="19.2657" x2="18.788" y2="10.789" gradientUnits="userSpaceOnUse">
<stop stop-color="#FFA200"/>
<stop offset="1" stop-color="#FF7D00"/>
</linearGradient>
</defs>
</svg>
